<svg xmlns="http://www.w3.org/2000/svg" viewBox="0 0 180 120">
  <rect x="10" y="10" width="160" height="100" fill="#0055a5"/>
  <path d="M35,90 L145,10" stroke="#ffffff" stroke-width="3"/>
  <path d="M75,90 L145,30" stroke="#ffffff" stroke-width="3"/>
  <path d="M115,90 L145,65" stroke="#ffffff" stroke-width="3"/>
  <g fill="#ffffff">
    <path d="M48,60 a18,18 0 1 0 0,-20 a15,15 0 1 1 0,20" />
    <path d="M82,46 c0,-9 7,-16 16,-16 c9,0 16,7 16,16 c0,9 -7,16 -16,16 c-9,0 -16,-7 -16,-16 z m9.5,0 c0,3.6 2.9,6.5 6.5,6.5 c3.6,0 6.5,-2.9 6.5,-6.5 c0,-3.6 -2.9,-6.5 -6.5,-6.5 c-3.6,0 -6.5,2.9 -6.5,6.5 z" />
    <path d="M125,46 c0,-9 7,-16 16,-16 v9.5 c-3.6,0 -6.5,2.9 -6.5,6.5 c0,3.6 2.9,6.5 6.5,6.5 v9.5 c-9,0 -16,-7 -16,-16 z" />
  </g>
</svg>