<svg xmlns="http://www.w3.org/2000/svg" viewBox="0 0 180 180">
  <!-- Shield background -->
  <path d="M90,10 L160,40 V90 C160,140 130,160 90,170 C50,160 20,140 20,90 V40 L90,10z" fill="#1a5fb4"/>
  
  <!-- FDA Logo in shield top -->
  <rect x="65" y="30" width="50" height="30" fill="#1a3b8b"/>
  <path d="M70,35h18v10h10l6,10v5h-10v-15h-8v15h-8v-15h-8z" fill="white"/>
  
  <!-- ICH GCP E6(R2) Text -->
  <text x="90" y="80" font-family="Arial, sans-serif" font-weight="bold" font-size="12" text-anchor="middle" fill="white">ICH GCP E6(R2)</text>
  
  <!-- Hands symbol -->
  <path d="M70,100 C80,85 110,85 120,100 L130,120 C125,125 115,125 110,120 L100,110 L90,120 C85,125 75,125 70,120 L80,100z" fill="white"/>
  <path d="M90,100 C95,95 100,95 105,100 L115,120 C110,125 100,125 95,120 L85,100z" fill="#1a5fb4"/>
</svg>