<?xml version="1.0" encoding="UTF-8"?>
<svg width="120" height="40" viewBox="0 0 120 40" fill="none" xmlns="http://www.w3.org/2000/svg">
  <path d="M18.8398 25.44C18.2398 26.84 17.2598 27.96 15.8998 28.8C14.5598 29.64 12.9198 30.04 10.9998 30.04C8.91982 30.04 7.09982 29.5333 5.53982 28.52C3.97982 27.4867 2.77982 26.0933 1.93982 24.34C1.11982 22.5867 0.699824 20.58 0.679824 18.32V17.64C0.679824 15.32 1.09982 13.2933 1.93982 11.56C2.77982 9.82667 3.95982 8.46667 5.47982 7.48C7.01982 6.49333 8.73982 6 10.6398 6C13.3598 6 15.5398 6.76 17.1798 8.28C18.8198 9.78667 19.7398 11.8467 19.9398 14.46H14.6198C14.4998 13.18 14.0998 12.2333 13.4198 11.62C12.7598 11.0067 11.8598 10.7 10.7198 10.7C9.31982 10.7 8.23982 11.26 7.47982 12.38C6.71982 13.5 6.33982 15.2467 6.33982 17.62V18.26C6.33982 20.6467 6.75982 22.4 7.59982 23.52C8.43982 24.64 9.69982 25.2 11.3798 25.2C12.8998 25.2 13.9798 24.7933 14.6198 23.98V20.5H10.4598V16.5H19.9398V25.44H18.8398Z" fill="#7C3AED"/>
  <path d="M30.8766 30.04C28.8766 30.04 27.2566 29.5 26.0166 28.42C24.7766 27.34 24.1566 25.8533 24.1566 23.96V23.46C24.1566 21.6867 24.6966 20.3133 25.7766 19.34C26.8566 18.3667 28.5166 17.86 30.7566 17.82L34.8766 17.7V16.68C34.8766 15.8267 34.6766 15.1867 34.2766 14.76C33.8766 14.3333 33.2366 14.12 32.3566 14.12C31.5566 14.12 30.9366 14.2867 30.4966 14.62C30.0766 14.9533 29.8166 15.42 29.7166 16.02H24.5966C24.6566 14.9933 25.0166 14.08 25.6766 13.28C26.3366 12.48 27.2566 11.86 28.4366 11.42C29.6166 10.98 30.9966 10.76 32.5766 10.76C35.0966 10.76 37.0366 11.3267 38.3966 12.46C39.7566 13.5933 40.4366 15.1667 40.4366 17.18V30H35.3766L35.0366 27.52C34.5366 28.3467 33.8766 29.0267 33.0566 29.56C32.2366 29.88 31.6166 30.04 30.8766 30.04ZM32.1966 26.78C33.2766 26.78 34.1166 26.42 34.7166 25.7C35.3166 24.98 35.6966 24.06 35.8566 22.94L35.8766 20.9L32.6766 21.04C31.5966 21.0933 30.7966 21.3333 30.2766 21.76C29.7766 22.1867 29.5266 22.7333 29.5266 23.4V23.64C29.5266 24.3067 29.7366 24.8267 30.1566 25.2C30.5966 26.2533 31.2566 26.78 32.1966 26.78Z" fill="#7C3AED"/>
  <path d="M53.5275 26.68C54.3675 26.68 55.0675 26.44 55.6275 25.96C56.1875 25.48 56.4875 24.86 56.5275 24.1H61.4075C61.3675 25.4867 60.9875 26.7267 60.2675 27.82C59.5475 28.9133 58.5675 29.76 57.3275 30.36C56.0875 30.96 54.7275 31.26 53.2475 31.26C50.5675 31.26 48.4675 30.4067 46.9475 28.7C45.4275 26.9933 44.6675 24.56 44.6675 21.4V20.72C44.6675 17.6267 45.4275 15.2267 46.9475 13.52C48.4675 11.8133 50.5575 10.96 53.2275 10.96C55.6275 10.96 57.5475 11.6733 58.9875 13.1C60.4275 14.5267 61.1475 16.4067 61.1475 18.74H56.2675C56.2675 17.78 55.9475 16.9933 55.3075 16.38C54.6675 15.7667 54.0075 15.46 53.3275 15.46C52.1675 15.46 51.3075 15.9067 50.7475 16.8C50.1875 17.6933 49.9075 19.0867 49.9075 20.98V21.68C49.9075 23.5733 50.1875 24.9733 50.7475 25.88C51.3075 26.08 52.3075 26.68 53.5275 26.68Z" fill="#7C3AED"/>
  <path d="M74.0141 30.04C72.0141 30.04 70.3941 29.5 69.1541 28.42C67.9141 27.34 67.2941 25.8533 67.2941 23.96V23.46C67.2941 21.6867 67.8341 20.3133 68.9141 19.34C69.9941 18.3667 71.6541 17.86 73.8941 17.82L78.0141 17.7V16.68C78.0141 15.8267 77.8141 15.1867 77.4141 14.76C77.0141 14.3333 76.3741 14.12 75.4941 14.12C74.6941 14.12 74.0741 14.2867 73.6341 14.62C73.2141 14.9533 72.9541 15.42 72.8541 16.02H67.7341C67.7941 14.9933 68.1541 14.08 68.8141 13.28C69.4741 12.48 70.3941 11.86 71.5741 11.42C72.7541 10.98 74.1341 10.76 75.7141 10.76C78.2341 10.76 80.1741 11.3267 81.5341 12.46C82.8941 13.5933 83.5741 15.1667 83.5741 17.18V30H78.5141L78.1741 27.52C77.6741 28.3467 77.0141 29.0267 76.1941 29.56C75.3741 29.88 74.7541 30.04 74.0141 30.04ZM75.3341 26.78C76.4141 26.78 77.2541 26.42 77.8541 25.7C78.4541 24.98 78.8341 24.06 78.9941 22.94L79.0141 20.9L75.8141 21.04C74.7341 21.0933 73.9341 21.3333 73.4141 21.76C72.9141 22.1867 72.6641 22.7333 72.6641 23.4V23.64C72.6641 24.3067 72.8741 24.8267 73.2941 25.2C73.7341 26.2533 74.3941 26.78 75.3341 26.78Z" fill="#7C3AED"/>
  <path d="M95.4509 22.64L98.7509 11H104.471L98.0309 30H92.8509L86.4309 11H92.1509L95.4509 22.64Z" fill="#7C3AED"/>
  <path d="M117.307 11L111.647 30H105.927L111.587 11H117.307Z" fill="#7C3AED"/>
</svg>