<?xml version="1.0" encoding="UTF-8"?>
<svg width="120" height="40" viewBox="0 0 120 40" fill="none" xmlns="http://www.w3.org/2000/svg">
  <path d="M18.48 29H15.36L9.12 17.08H9.04L9.12 19.64V29H6.4V11H9.52L15.76 22.92H15.84L15.76 20.36V11H18.48V29Z" fill="#16A34A"/>
  <path d="M34.3506 20.44V28.6C34.3506 32.0933 31.9573 34.52 28.3906 34.52C24.824 34.52 22.4306 32.0933 22.4306 28.6V20.44C22.4306 16.9467 24.824 14.52 28.3906 14.52C31.9573 14.52 34.3506 16.9467 34.3506 20.44ZM25.1906 20.44V28.6C25.1906 30.3333 26.4973 31.8 28.3906 31.8C30.284 31.8 31.5906 30.3333 31.5906 28.6V20.44C31.5906 18.7067 30.284 17.24 28.3906 17.24C26.4973 17.24 25.1906 18.7067 25.1906 20.44Z" fill="#16A34A"/>
  <path d="M49.1813 20.44V29H46.4213V20.44C46.4213 18.6333 45.3413 17.24 43.5746 17.24C41.7146 17.24 40.5413 18.6333 40.5413 20.44V29H37.7813V15H40.4613V16.56C41.5413 15.0933 42.9413 14.52 44.7079 14.52C47.9946 14.52 49.1813 17.24 49.1813 20.44Z" fill="#16A34A"/>
  <path d="M64.3684 15V29H61.6884V27.48C60.6084 28.8 58.9284 29.24 56.8484 29.24C53.5618 29.24 51.3884 27.24 51.3884 24.28C51.3884 21.32 53.5618 19.32 56.8484 19.32C58.9284 19.32 60.6084 19.76 61.6884 21.08V15H64.3684ZM57.4884 26.52C59.3018 26.52 61.6884 25.8 61.6884 23.84V22.04C61.6884 20.08 59.3018 19.36 57.4884 19.36C55.4884 19.36 54.1484 20.68 54.1484 22.92C54.1484 25.12 55.4884 26.52 57.4884 26.52Z" fill="#16A34A"/>
  <path d="M67.8694 15H70.6294V29H67.8694V15Z" fill="#16A34A"/>
  <path d="M87.135 11H89.895V29H87.215V27.32C86.135 28.6 84.655 29.24 82.575 29.24C78.935 29.24 76.375 26.52 76.375 22.08C76.375 17.6 78.935 14.76 82.575 14.76C84.575 14.76 86.015 15.36 87.055 16.56L87.135 11ZM83.015 26.52C85.215 26.52 87.215 25 87.215 22V21.96C87.215 18.96 85.215 17.48 83.015 17.48C80.695 17.48 79.135 19.2 79.135 22C79.135 24.76 80.695 26.52 83.015 26.52Z" fill="#16A34A"/>
  <path d="M105.17 15V29H102.49V27.48C101.25 28.92 99.89 29.24 97.89 29.24C94.61 29.24 92.73 27.12 92.73 24.12V15H95.49V23.88C95.49 25.76 96.77 26.52 98.37 26.52C100.33 26.52 102.49 25.44 102.49 23.16V15H105.17Z" fill="#16A34A"/>
  <path d="M111.106 11H113.866V29H111.106V11Z" fill="#16A34A"/>
</svg>