<?xml version="1.0" encoding="UTF-8"?>
<svg width="120" height="40" viewBox="0 0 120 40" fill="none" xmlns="http://www.w3.org/2000/svg">
  <path d="M16.5 8.75C19.9518 8.75 22.75 11.5482 22.75 15C22.75 18.4518 19.9518 21.25 16.5 21.25H10.25V28.75H6.5V8.75H16.5ZM16.5 17.5C17.8807 17.5 19 16.3807 19 15C19 13.6193 17.8807 12.5 16.5 12.5H10.25V17.5H16.5Z" fill="#0066CC"/>
  <path d="M27 8.75H30.75V25H42.25V28.75H27V8.75Z" fill="#0066CC"/>
  <path d="M53.75 28.75C50.2982 28.75 47.5 25.9518 47.5 22.5V15C47.5 11.5482 50.2982 8.75 53.75 8.75H60C63.4518 8.75 66.25 11.5482 66.25 15V22.5C66.25 25.9518 63.4518 28.75 60 28.75H53.75ZM60 25C61.3807 25 62.5 23.8807 62.5 22.5V15C62.5 13.6193 61.3807 12.5 60 12.5H53.75C52.3693 12.5 51.25 13.6193 51.25 15V22.5C51.25 23.8807 52.3693 25 53.75 25H60Z" fill="#0066CC"/>
  <path d="M69.5 8.75H73.25V15.9C74.03 14.76 75.6 13.75 77.9 13.75C81.3518 13.75 84.15 16.5482 84.15 20V28.75H80.4V20C80.4 18.6193 79.2807 17.5 77.9 17.5C76.5193 17.5 75.4 18.6193 75.4 20V28.75H71.65V20C71.65 18.6193 70.5307 17.5 69.15 17.5H69V28.75H65.25V16.25C65.25 14.8693 66.3693 13.75 67.75 13.75H69.5V8.75Z" fill="#0066CC"/>
  <path d="M86.5 28.75V13.75H90.25V16.9C91.03 14.76 92.6 13.75 94.9 13.75C98.3518 13.75 101.15 16.5482 101.15 20V28.75H97.4V20C97.4 18.6193 96.2807 17.5 94.9 17.5C93.5193 17.5 92.4 18.6193 92.4 20V28.75H88.65V20C88.65 18.6193 87.5307 17.5 86.15 17.5H86V28.75H82.25V16.25C82.25 14.8693 83.3693 13.75 84.75 13.75H86.5V28.75Z" fill="#0066CC"/>
  <path d="M110.5 28.75L105.212 21.25L103.5 23.35V28.75H99.75V8.75H103.5V18.4L110.5 13.75H115.5L107.7 19.2L115.5 28.75H110.5Z" fill="#0066CC"/>
</svg>