<?xml version="1.0" encoding="UTF-8" standalone="no"?>
<svg width="1440" height="800" viewBox="0 0 1440 800" xmlns="http://www.w3.org/2000/svg">
  <defs>
    <filter id="blur" x="-50%" y="-50%" width="200%" height="200%">
      <feGaussianBlur in="SourceGraphic" stdDeviation="10" />
    </filter>
  </defs>
  <g filter="url(#blur)">
    <g fill="#2563eb" opacity="0.7">
      <circle cx="250" cy="150" r="3" />
      <circle cx="350" cy="250" r="2" />
      <circle cx="450" cy="350" r="4" />
      <circle cx="550" cy="150" r="2" />
      <circle cx="650" cy="250" r="3" />
      <circle cx="750" cy="350" r="2" />
      <circle cx="850" cy="150" r="4" />
      <circle cx="950" cy="250" r="3" />
      <circle cx="1050" cy="350" r="2" />
      <circle cx="1150" cy="150" r="3" />
      <circle cx="1250" cy="250" r="2" />
      <circle cx="250" cy="450" r="4" />
      <circle cx="350" cy="550" r="3" />
      <circle cx="450" cy="650" r="2" />
      <circle cx="550" cy="450" r="3" />
      <circle cx="650" cy="550" r="2" />
      <circle cx="750" cy="650" r="4" />
      <circle cx="850" cy="450" r="2" />
      <circle cx="950" cy="550" r="3" />
      <circle cx="1050" cy="650" r="2" />
      <circle cx="1150" cy="450" r="4" />
      <circle cx="1250" cy="550" r="3" />
    </g>
    <g fill="#10b981" opacity="0.7">
      <circle cx="300" cy="100" r="2" />
      <circle cx="400" cy="200" r="3" />
      <circle cx="500" cy="300" r="2" />
      <circle cx="600" cy="100" r="4" />
      <circle cx="700" cy="200" r="3" />
      <circle cx="800" cy="300" r="2" />
      <circle cx="900" cy="100" r="3" />
      <circle cx="1000" cy="200" r="2" />
      <circle cx="1100" cy="300" r="4" />
      <circle cx="1200" cy="100" r="2" />
      <circle cx="1300" cy="200" r="3" />
      <circle cx="300" cy="400" r="2" />
      <circle cx="400" cy="500" r="4" />
      <circle cx="500" cy="600" r="3" />
      <circle cx="600" cy="400" r="2" />
      <circle cx="700" cy="500" r="3" />
      <circle cx="800" cy="600" r="2" />
      <circle cx="900" cy="400" r="4" />
      <circle cx="1000" cy="500" r="3" />
      <circle cx="1100" cy="600" r="2" />
      <circle cx="1200" cy="400" r="3" />
      <circle cx="1300" cy="500" r="2" />
    </g>
  </g>
</svg>