<svg xmlns="http://www.w3.org/2000/svg" viewBox="0 0 180 90">
  <path d="M24.3,47.1c-2.9-1.5-4.3-4.3-4.3-8.5c0-7.5,4.7-12.2,12.1-12.2c3.8,0,6.7,0.9,8.8,2.7l-2.2,3.9c-1.9-1.3-3.7-2-6.3-2
    c-4.3,0-7.1,2.7-7.1,7.4c0,4.6,2.8,7.4,7.3,7.4c2.6,0,4.6-0.6,6.7-2.1l1.9,4c-2.3,1.8-5.4,2.8-9.4,2.8C28.4,48.7,26.1,48.1,24.3,47.1z" fill="#0e2340"/>
  <path d="M48.5,26.8c7.5,0,12.5,5.3,12.5,13.2v1.3H41.6c0.3,4.5,3.5,7.1,8.1,7.1c2.3,0,4.6-0.8,6.5-2.2l2.1,3.9
    c-2.5,1.9-5.9,2.9-9.5,2.9c-7.6,0-12.8-5.2-12.8-13C36,31.9,41.1,26.8,48.5,26.8z M41.7,37.2h13.9c-0.2-3.9-2.9-6.2-6.9-6.2
    C44.7,31,42,33.3,41.7,37.2z" fill="#0e2340"/>
  <path d="M70.1,31c1.8-2.8,4.5-4.2,7.7-4.2v5.1c-4.8-0.5-7.7,1.8-7.7,6.9v9.5h-5.1V27.1h5.1V31z" fill="#0e2340"/>
  <path d="M85.4,43.9c2.1,0,3.8-0.8,5-2.5l3.5,2.1c-1.9,3-5,4.7-8.6,4.7c-6.7,0-11.3-4.4-11.3-10.9s4.6-10.9,11.4-10.9
    c3.6,0,6.7,1.7,8.5,4.7l-3.5,2.1c-1.2-1.7-2.9-2.5-5-2.5c-3.8,0-6.3,2.6-6.3,6.6C79.1,41.3,81.6,43.9,85.4,43.9z" fill="#0e2340"/>
  <path d="M122.2,31c-1.9-1.9-4.2-2.8-7-2.8c-5.7,0-9.8,3.8-9.8,9.2c0,5.4,4.1,9.2,9.8,9.2c2.8,0,5.1-0.9,7-2.8v2.4
    c0,4.6-3.9,7.2-8,7.2c-3.1,0-5.8-1.1-8.1-3.3l-2.1,3.9c3.1,2.6,6.6,3.7,10.9,3.7c7.4,0,12.5-4.1,12.5-11.8V27.1h-5.1V31z M122.2,41.3
    c-1.5,1.6-3.5,2.4-5.8,2.4c-3.6,0-6.1-2.3-6.1-5.7c0-3.4,2.5-5.7,6.1-5.7c2.3,0,4.3,0.8,5.8,2.3V41.3z" fill="#0e2340"/>
</svg>