<?xml version="1.0" encoding="UTF-8"?>
<svg width="24" height="24" viewBox="0 0 24 24" fill="none" xmlns="http://www.w3.org/2000/svg">
  <path d="M9.5 2C8.84968 2.00363 8.21272 2.17611 7.64982 2.50218C7.08691 2.82825 6.61736 3.29941 6.29348 3.86322C5.96959 4.42703 5.79957 5.06442 5.79843 5.71473C5.7973 6.36504 5.96507 7.00307 6.287 7.568M14.5 2C15.1503 2.00363 15.7873 2.17611 16.3502 2.50218C16.9131 2.82825 17.3826 3.29941 17.7065 3.86322C18.0304 4.42703 18.2004 5.06442 18.2016 5.71473C18.2027 6.36504 18.0349 7.00307 17.713 7.568M18.8 9C19.9201 9.53296 20.6122 10.6944 20.5989 11.953C20.5856 13.2116 19.8691 14.3591 18.739 14.87M5.20001 9C4.07993 9.53296 3.38782 10.6944 3.40113 11.953C3.41444 13.2116 4.13092 14.3591 5.26101 14.87M14.5 22C13.5403 21.9778 12.6238 21.5758 11.9723 20.8944C11.3209 20.213 10.9566 19.2799 10.973 18.32C10.9778 17.8993 11.063 17.4825 11.2239 17.093C11.3849 16.7035 11.6188 16.3488 11.9127 16.0501C12.2066 15.7513 12.5556 15.5134 12.9415 15.3482C13.3273 15.183 13.7437 15.0933 14.1644 15.084C14.5575 15.0817 14.9472 15.154 15.3135 15.2975C15.6797 15.441 16.0156 15.6532 16.3019 15.9226C16.5883 16.192 16.8198 16.5139 16.9836 16.8703C17.1473 17.2266 17.241 17.6104 17.2595 18.003V18.003C17.2595 18.738 17.5755 19.4435 18.138 19.9723C18.7004 20.5011 19.4343 20.7966 20.1735 20.779" stroke="#22c55e" stroke-width="2" stroke-linecap="round" stroke-linejoin="round"/>
  <path d="M9.5 22C10.4597 21.9778 11.3762 21.5758 12.0277 20.8944C12.6791 20.213 13.0434 19.2799 13.027 18.32C13.0222 17.8993 12.937 17.4825 12.7761 17.093C12.6151 16.7035 12.3812 16.3488 12.0873 16.0501C11.7934 15.7513 11.4444 15.5134 11.0586 15.3482C10.6727 15.183 10.2563 15.0933 9.83566 15.084C9.44264 15.0817 9.05292 15.154 8.68666 15.2975C8.3204 15.441 7.98448 15.6532 7.69814 15.9226C7.4118 16.192 7.18023 16.5139 7.01645 16.8703C6.85268 17.2266 6.75901 17.6104 6.74051 18.003V18.003C6.74051 18.738 6.42454 19.4435 5.86205 19.9723C5.29957 20.5011 4.56574 20.7966 3.82651 20.779" stroke="#22c55e" stroke-width="2" stroke-linecap="round" stroke-linejoin="round"/>
</svg>