<?xml version="1.0" encoding="UTF-8"?>
<svg width="24" height="24" viewBox="0 0 24 24" fill="none" xmlns="http://www.w3.org/2000/svg">
  <path d="M12 22C17.5228 22 22 17.5228 22 12C22 6.47715 17.5228 2 12 2C6.47715 2 2 6.47715 2 12C2 17.5228 6.47715 22 12 22Z" stroke="white" stroke-width="2" stroke-linecap="round" stroke-linejoin="round"/>
  <path d="M12 16V16.01" stroke="white" stroke-width="2" stroke-linecap="round" stroke-linejoin="round"/>
  <path d="M12 13C11.9816 12.6037 12.1041 12.2159 12.3431 11.9154C12.5821 11.6148 12.9209 11.4258 13.29 11.39C13.8091 11.3359 14.3104 11.1703 14.7519 10.9092C15.1935 10.6481 15.5625 10.2994 15.8287 9.88867C16.0949 9.47796 16.2503 9.01384 16.2821 8.53316C16.3139 8.05248 16.2213 7.57166 16.0121 7.13052C15.8028 6.68939 15.4827 6.30168 15.0797 5.99958C14.6767 5.69748 14.2028 5.49082 13.7009 5.3964C13.199 5.30198 12.6829 5.32273 12.191 5.45693C11.6992 5.59112 11.2452 5.8352 10.87 6.17" stroke="white" stroke-width="2" stroke-linecap="round" stroke-linejoin="round"/>
</svg>