<svg xmlns="http://www.w3.org/2000/svg" viewBox="0 0 180 70">
  <path d="M16,16h40v40h-40z" fill="#007348" />
  <path d="M56,16h40v40h-40z" fill="#8b0032" />
  <path d="M96,16h40v40h-40z" fill="#0c1e7e" />
  <g fill="#ffffff">
    <path d="M26,31h18v2h-14.5v6h13v2h-13v6h15v2h-18.5z" />
    <path d="M71,25c-1.5,0-3,0.2-4.3,0.7c-1.3,0.4-2.5,1.1-3.4,2s-1.7,2-2.3,3.4c-0.5,1.3-0.8,2.9-0.8,4.7c0,1.8,0.3,3.4,0.8,4.8c0.6,1.4,1.3,2.5,2.3,3.4s2.1,1.6,3.4,2c1.3,0.4,2.7,0.7,4.3,0.7c1,0,2-0.1,2.8-0.3c0.9-0.2,1.7-0.4,2.4-0.6c0.7-0.3,1.4-0.6,1.9-0.9c0.6-0.3,1-0.7,1.4-1l-1.5-2.9c-0.8,0.6-1.7,1.2-2.9,1.6c-1.1,0.5-2.4,0.7-3.9,0.7c-1,0-1.9-0.1-2.6-0.4c-0.8-0.3-1.4-0.7-2-1.2c-0.5-0.5-0.9-1.2-1.2-1.9c-0.3-0.7-0.4-1.6-0.5-2.5h15.2c0-0.2,0-0.4,0-0.7v-0.7c0-1.5-0.2-2.9-0.6-4.2c-0.4-1.3-1-2.3-1.8-3.2c-0.8-0.9-1.8-1.6-3-2.1c-1.2-0.5-2.6-0.7-4.2-0.7zM66,32.7c0.3-0.5,0.6-1,1-1.4c0.4-0.4,0.9-0.7,1.5-0.9c0.6-0.2,1.2-0.3,2-0.3c0.7,0,1.4,0.1,1.9,0.3c0.6,0.2,1,0.5,1.4,0.9c0.4,0.4,0.7,0.8,0.9,1.4c0.2,0.5,0.3,1.1,0.4,1.8h-9.6c0.1-0.7,0.2-1.3,0.5-1.8z" />
    <path d="M103.2,36.5c0-2,0.5-3.6,1.6-4.7c1.1-1.1,2.5-1.7,4.4-1.7c0.6,0,1.2,0.1,1.8,0.2c0.6,0.1,1.1,0.3,1.6,0.6c0.5,0.3,0.9,0.6,1.3,0.9c0.4,0.4,0.6,0.8,0.8,1.3h0.3v-7.6h3.6v24h-3.6v-2.8h-0.3c-0.2,0.5-0.5,0.9-0.8,1.3c-0.4,0.4-0.8,0.7-1.3,0.9c-0.5,0.3-1,0.5-1.6,0.6c-0.6,0.1-1.2,0.2-1.8,0.2c-1.9,0-3.3-0.6-4.4-1.7c-1.1-1.1-1.6-2.7-1.6-4.7v-6.8zM114.7,43c0.7-0.7,1-1.7,1-3v-7c0-1.3-0.3-2.3-1-3c-0.7-0.7-1.5-1.1-2.6-1.1c-1.1,0-2,0.4-2.7,1.1c-0.7,0.7-1,1.7-1,2.9v7.2c0,1.2,0.3,2.2,1,2.9c0.7,0.7,1.6,1.1,2.7,1.1c1.1,0,2-0.4,2.6-1.1z" />
  </g>
</svg>